<?xml version="1.0" encoding="utf-8"?>
<!-- Generator: Adobe Illustrator 21.0.0, SVG Export Plug-In . SVG Version: 6.00 Build 0)  -->
<svg version="1.1" id="Layer_1" xmlns="http://www.w3.org/2000/svg" xmlns:xlink="http://www.w3.org/1999/xlink" x="0px" y="0px"
	 viewBox="0 0 64 64" style="enable-background:new 0 0 64 64;" xml:space="preserve">
<style type="text/css">
	.st0{fill:#039BE5;stroke:#0277BD;stroke-linecap:round;stroke-linejoin:round;stroke-miterlimit:10;}
	.st1{fill:#81D4FA;stroke:#0277BD;stroke-linecap:round;stroke-linejoin:round;stroke-miterlimit:10;}
	.st2{fill:#EC407A;stroke:#0277BD;stroke-linecap:round;stroke-linejoin:round;stroke-miterlimit:10;}
	.st3{fill:#FFA726;stroke:#0277BD;stroke-linecap:round;stroke-linejoin:round;stroke-miterlimit:10;}
	.st4{fill:#80CBC4;stroke:#0277BD;stroke-linecap:round;stroke-linejoin:round;stroke-miterlimit:10;}
	.st5{fill:none;stroke:#F48FB1;stroke-linecap:round;stroke-linejoin:round;stroke-miterlimit:10;}
	.st6{fill:none;stroke:#FFCC80;stroke-linecap:round;stroke-linejoin:round;stroke-miterlimit:10;}
	.st7{fill:none;stroke:#E0F2F1;stroke-linecap:round;stroke-linejoin:round;stroke-miterlimit:10;}
	.st8{fill:none;stroke:#26A69A;stroke-linecap:round;stroke-linejoin:round;stroke-miterlimit:10;}
	.st9{fill:none;stroke:#F57C00;stroke-linecap:round;stroke-linejoin:round;stroke-miterlimit:10;}
	.st10{fill:none;stroke:#D81B60;stroke-linecap:round;stroke-linejoin:round;stroke-miterlimit:10;}
	.st11{fill:#EEEEEE;stroke:#0277BD;stroke-linecap:round;stroke-linejoin:round;stroke-miterlimit:10;}
	.st12{fill:none;stroke:#BDBDBD;stroke-linecap:round;stroke-linejoin:round;stroke-miterlimit:10;}
	.st13{fill:none;stroke:#E1F5FE;stroke-linecap:round;stroke-linejoin:round;stroke-miterlimit:10;}
	.st14{fill:none;stroke:#FFFFFF;stroke-linecap:round;stroke-linejoin:round;stroke-miterlimit:10;}
	.st15{fill:none;stroke:#29B6F6;stroke-linecap:round;stroke-linejoin:round;stroke-miterlimit:10;}
	.st16{fill:none;stroke:#4FC3F7;stroke-linecap:round;stroke-linejoin:round;stroke-miterlimit:10;}
	.st17{fill:none;stroke:#0277BD;stroke-linecap:round;stroke-linejoin:round;stroke-miterlimit:10;}
</style>
<g id="Shelf_Capacity">
	<g>
		<path class="st11" d="M7,63.5H3c-0.6,0-1-0.4-1-1v-57c0-0.6,0.4-1,1-1h4c0.6,0,1,0.4,1,1v57C8,63.1,7.6,63.5,7,63.5z"/>
		<path class="st11" d="M61,63.5h-4c-0.6,0-1-0.4-1-1v-57c0-0.6,0.4-1,1-1h4c0.6,0,1,0.4,1,1v57C62,63.1,61.6,63.5,61,63.5z"/>
		<rect x="8" y="11.5" class="st11" width="48" height="4"/>
		<rect x="8" y="52.5" class="st11" width="48" height="4"/>
		<rect x="8" y="32" class="st11" width="48" height="4"/>
		<rect x="2" y="10.5" class="st1" width="6" height="6"/>
		<rect x="2" y="31" class="st1" width="6" height="6"/>
		<rect x="2" y="51.5" class="st1" width="6" height="6"/>
		<rect x="56" y="10.5" class="st1" width="6" height="6"/>
		<rect x="56" y="31" class="st1" width="6" height="6"/>
		<rect x="56" y="51.5" class="st1" width="6" height="6"/>
		<g>
			<rect x="45" y="21" class="st3" width="11" height="11"/>
			<polygon class="st2" points="45,26.5 56,32 45,32 			"/>
		</g>
		<g>
			<rect x="31.5" y="21" class="st3" width="11" height="11"/>
			<polygon class="st2" points="31.5,26.5 42.5,32 31.5,32 			"/>
		</g>
		<g>
			<rect x="18" y="21" class="st3" width="11" height="11"/>
			<polygon class="st2" points="18,26.5 29,32 18,32 			"/>
		</g>
		<rect x="12" y="0.5" class="st3" width="8" height="11"/>
		<rect x="22.5" y="0.5" class="st3" width="8" height="11"/>
		<rect x="33" y="0.5" class="st3" width="8" height="11"/>
		<polygon class="st2" points="20,6 12,11.5 20,11.5 		"/>
		<polygon class="st2" points="30.5,6 22.5,11.5 30.5,11.5 		"/>
		<polygon class="st2" points="41,6 33,11.5 41,11.5 		"/>
		<rect x="11" y="47.5" class="st2" width="19" height="5"/>
		<rect x="11" y="42.5" class="st3" width="19" height="5"/>
		<line class="st6" x1="14" y1="2.5" x2="18" y2="2.5"/>
		<line class="st6" x1="24.5" y1="2.5" x2="28.5" y2="2.5"/>
		<line class="st6" x1="35" y1="2.5" x2="39" y2="2.5"/>
		<line class="st6" x1="20" y1="23" x2="27" y2="23"/>
		<line class="st6" x1="13" y1="44.5" x2="28" y2="44.5"/>
		<line class="st6" x1="33.5" y1="23" x2="40.5" y2="23"/>
		<line class="st6" x1="47" y1="23" x2="54" y2="23"/>
	</g>
</g>
</svg>
