<?xml version="1.0" encoding="iso-8859-1"?>
<!-- Generator: Adobe Illustrator 24.0.3, SVG Export Plug-In . SVG Version: 6.00 Build 0)  -->
<svg version="1.1" xmlns="http://www.w3.org/2000/svg" xmlns:xlink="http://www.w3.org/1999/xlink" x="0px" y="0px"
	 viewBox="0 0 64 64" style="enable-background:new 0 0 64 64;" xml:space="preserve">
<g id="home-growth">
	<path style="fill:#ABD8C7;" d="M32.017,9.476l-10.59,8.489l-8.592,6.889L9.894,27.21v27.555h8.592V44.81
		c0-0.471,0.381-0.852,0.852-0.852h6.175c0.471,0,0.852,0.381,0.852,0.852v9.955h1.699V38.596c0-0.467,0.38-0.848,0.848-0.848h6.175
		c0.471,0,0.852,0.381,0.852,0.848v16.169h1.699V31.266c0-0.471,0.381-0.852,0.852-0.852h6.175c0.471,0,0.852,0.381,0.852,0.852
		v23.498h8.588V27.249h0.06L32.017,9.476z M42.236,23.897l-0.843,5.527l-1.682-0.255l0.532-3.485L18.365,41.951l-1.016-1.366
		L39.23,24.321l-3.494-0.497l0.238-1.682l5.539,0.783c0.225,0.035,0.428,0.156,0.562,0.337C42.21,23.443,42.27,23.672,42.236,23.897
		z"/>
	<g>
		<polygon style="fill:#9AC1B1;" points="32.306,8.155 30.146,9.8 52.293,28.09 52.233,28.955 52.233,54.741 55.26,54.741 
			55.26,27.225 55.32,27.225 		"/>
	</g>
	<path style="fill:#47705D;" d="M42.076,23.262c-0.134-0.182-0.337-0.303-0.562-0.337l-5.539-0.783l-0.238,1.682l3.494,0.497
		L17.349,40.585l1.016,1.366l21.877-16.268l-0.532,3.485l1.682,0.255l0.843-5.527C42.27,23.672,42.21,23.443,42.076,23.262z
		 M42.076,23.262c-0.134-0.182-0.337-0.303-0.562-0.337l-5.539-0.783l-0.238,1.682l3.494,0.497L17.349,40.585l1.016,1.366
		l21.877-16.268l-0.532,3.485l1.682,0.255l0.843-5.527C42.27,23.672,42.21,23.443,42.076,23.262z M55.805,54.764V28.563l3.135,2.517
		l1.064-1.328L32.549,7.724c-0.311-0.251-0.752-0.251-1.064,0l-9.743,7.805v-2.257h1.613v-1.699H9.639v1.699h1.812v10.508L4,29.752
		l1.064,1.328l3.131-2.508v26.192H0v1.699h64v-1.699H55.805z M13.155,13.272h6.889v3.619l-6.889,5.526V13.272z M24.662,54.764H20.19
		v-9.107h4.471V54.764z M34.24,54.764h-4.476V39.448h4.476V54.764z M43.814,54.764h-4.471V32.118h4.471V54.764z M54.106,27.249
		v27.516h-8.588V31.266c0-0.471-0.38-0.852-0.852-0.852h-6.175c-0.471,0-0.852,0.381-0.852,0.852v23.498h-1.699V38.596
		c0-0.467-0.381-0.848-0.852-0.848h-6.175c-0.467,0-0.848,0.381-0.848,0.848v16.169h-1.699V44.81c0-0.471-0.381-0.852-0.852-0.852
		h-6.175c-0.471,0-0.852,0.381-0.852,0.852v9.955H9.894V27.21l2.941-2.357l8.592-6.889l10.59-8.489l22.149,17.773H54.106z
		 M17.349,40.585l1.016,1.366l21.877-16.268l-0.532,3.485l1.682,0.255l0.843-5.527c0.035-0.225-0.026-0.454-0.16-0.636
		c-0.134-0.182-0.337-0.303-0.562-0.337l-5.539-0.783l-0.238,1.682l3.494,0.497L17.349,40.585z"/>
</g>
<g id="Layer_1">
</g>
</svg>
