<?xml version="1.0" encoding="utf-8"?>
<!-- Generator: Adobe Illustrator 21.0.0, SVG Export Plug-In . SVG Version: 6.00 Build 0)  -->
<svg version="1.1" id="Layer_1" xmlns="http://www.w3.org/2000/svg" xmlns:xlink="http://www.w3.org/1999/xlink" x="0px" y="0px"
	 viewBox="0 0 64 64" style="enable-background:new 0 0 64 64;" xml:space="preserve">
<style type="text/css">
	.st0{fill:#039BE5;stroke:#0277BD;stroke-linecap:round;stroke-linejoin:round;stroke-miterlimit:10;}
	.st1{fill:#81D4FA;stroke:#0277BD;stroke-linecap:round;stroke-linejoin:round;stroke-miterlimit:10;}
	.st2{fill:#EC407A;stroke:#0277BD;stroke-linecap:round;stroke-linejoin:round;stroke-miterlimit:10;}
	.st3{fill:#FFA726;stroke:#0277BD;stroke-linecap:round;stroke-linejoin:round;stroke-miterlimit:10;}
	.st4{fill:#80CBC4;stroke:#0277BD;stroke-linecap:round;stroke-linejoin:round;stroke-miterlimit:10;}
	.st5{fill:none;stroke:#F48FB1;stroke-linecap:round;stroke-linejoin:round;stroke-miterlimit:10;}
	.st6{fill:none;stroke:#FFCC80;stroke-linecap:round;stroke-linejoin:round;stroke-miterlimit:10;}
	.st7{fill:none;stroke:#E0F2F1;stroke-linecap:round;stroke-linejoin:round;stroke-miterlimit:10;}
	.st8{fill:none;stroke:#26A69A;stroke-linecap:round;stroke-linejoin:round;stroke-miterlimit:10;}
	.st9{fill:none;stroke:#F57C00;stroke-linecap:round;stroke-linejoin:round;stroke-miterlimit:10;}
	.st10{fill:none;stroke:#D81B60;stroke-linecap:round;stroke-linejoin:round;stroke-miterlimit:10;}
	.st11{fill:#EEEEEE;stroke:#0277BD;stroke-linecap:round;stroke-linejoin:round;stroke-miterlimit:10;}
	.st12{fill:none;stroke:#BDBDBD;stroke-linecap:round;stroke-linejoin:round;stroke-miterlimit:10;}
	.st13{fill:none;stroke:#E1F5FE;stroke-linecap:round;stroke-linejoin:round;stroke-miterlimit:10;}
	.st14{fill:none;stroke:#FFFFFF;stroke-linecap:round;stroke-linejoin:round;stroke-miterlimit:10;}
	.st15{fill:none;stroke:#29B6F6;stroke-linecap:round;stroke-linejoin:round;stroke-miterlimit:10;}
	.st16{fill:none;stroke:#4FC3F7;stroke-linecap:round;stroke-linejoin:round;stroke-miterlimit:10;}
	.st17{fill:none;stroke:#0277BD;stroke-linecap:round;stroke-linejoin:round;stroke-miterlimit:10;}
</style>
<g id="Order_Delivery">
	<g>
		<path class="st3" d="M19.5,50.5h40c1.7,0,3-1.3,3-3v-29h-46v29C16.5,49.2,17.8,50.5,19.5,50.5z"/>
		<path class="st9" d="M19.5,48.5h40"/>
		<path class="st6" d="M18.5,20.5h42"/>
		<path class="st11" d="M49.5,45.5h9c0.6,0,1-0.4,1-1v-3c0-0.6-0.4-1-1-1h-9c-0.6,0-1,0.4-1,1v3C48.5,45.1,48.9,45.5,49.5,45.5z"/>
		<path class="st2" d="M63.5,8.5v7c0,1.7-1.3,3-3,3h-42c-1.7,0-3-1.3-3-3v-7c0-1.7,1.3-3,3-3h42C62.2,5.5,63.5,6.8,63.5,8.5z"/>
		<path class="st5" d="M18.5,7.5h42"/>
		<path class="st10" d="M18.5,16.5h42"/>
		<g>
			<path class="st1" d="M0.8,25.6l16.3,16.3c0.4,0.4,1,0.4,1.4,0l12.7-12.7c0.4-0.4,0.4-1,0-1.4L14.9,11.5c-0.4-0.4-1-0.4-1.4,0
				L0.8,24.2C0.4,24.6,0.4,25.2,0.8,25.6z"/>
			<line class="st13" x1="14.2" y1="13.6" x2="29.1" y2="28.5"/>
			<line class="st15" x1="2.9" y1="24.9" x2="17.8" y2="39.8"/>
			<path class="st11" d="M51.2,47.8L38.6,35.2c-0.6-0.6-0.2-1.7,0.7-1.7h2.1c1.4,0,2.5-1.1,2.5-2.5v0c0-1.4-1.1-2.5-2.5-2.5l-9.5,0
				L17.8,42.6l8.1,8.1l7,7c0.9,0.9,2.4,1.1,3.4,0.3c1.2-1,1.2-2.7,0.2-3.7l1.3,1.3c0.9,0.9,2.4,1.1,3.4,0.3c1.2-1,1.2-2.7,0.2-3.7
				l1.3,1.3c0.9,0.9,2.4,1.1,3.4,0.3c1.2-1,1.2-2.7,0.2-3.7l1.4,1.4c1,1,2.8,1,3.7-0.2C52.4,50.2,52.2,48.7,51.2,47.8z"/>
			<line class="st11" x1="46.4" y1="50" x2="41.5" y2="45.1"/>
			<line class="st11" x1="41.5" y1="52.1" x2="37.9" y2="48.6"/>
			<line class="st11" x1="36.5" y1="54.3" x2="34.4" y2="52.1"/>
			<line class="st12" x1="20.6" y1="42.6" x2="34.7" y2="56.7"/>
		</g>
	</g>
</g>
</svg>
