<?xml version="1.0" encoding="UTF-8"?>
<!DOCTYPE svg PUBLIC "-//W3C//DTD SVG 1.1//EN" "http://www.w3.org/Graphics/SVG/1.1/DTD/svg11.dtd">
<!-- Creator: CorelDRAW -->
<svg xmlns="http://www.w3.org/2000/svg" xml:space="preserve" width="2048px" height="2048px" style="shape-rendering:geometricPrecision; text-rendering:geometricPrecision; image-rendering:optimizeQuality; fill-rule:evenodd; clip-rule:evenodd"
viewBox="0 0 2048 2048"
 xmlns:xlink="http://www.w3.org/1999/xlink">
 <defs>
  <style type="text/css">
   <![CDATA[
    .fil2 {fill:none}
    .fil1 {fill:#00ACC1}
    .fil7 {fill:#283593}
    .fil0 {fill:#4DD0E1}
    .fil3 {fill:#6D4C41}
    .fil4 {fill:#EEEEEE}
    .fil5 {fill:#FDD835}
    .fil6 {fill:#757575;fill-rule:nonzero}
   ]]>
  </style>
   <clipPath id="id0">
    <path d="M1024 0c565.541,0 1024,458.459 1024,1024 0,565.541 -458.459,1024 -1024,1024 -565.541,0 -1024,-458.459 -1024,-1024 0,-565.541 458.459,-1024 1024,-1024z"/>
   </clipPath>
 </defs>
 <g id="Layer_x0020_1">
  <metadata id="CorelCorpID_0Corel-Layer"/>
  <path class="fil0" d="M1024 0c565.541,0 1024,458.459 1024,1024 0,565.541 -458.459,1024 -1024,1024 -565.541,0 -1024,-458.459 -1024,-1024 0,-565.541 458.459,-1024 1024,-1024z"/>
  <g style="clip-path:url(#id0)">
   <g id="_308711824">
    <g>
     <polygon id="_3040422801" class="fil1" points="1584,466.729 2719.88,1602.61 2719.88,2642.25 1584,1506.36 "/>
     <polygon id="_304042808" class="fil1" points="589.004,1096 1724.89,2231.88 1725.76,2232.71 589.878,1096.83 "/>
     <polygon id="_304043216" class="fil1" points="931.712,1506.36 2067.59,2642.25 2063.77,2646.07 927.888,1510.19 "/>
     <polygon id="_304043336" class="fil1" points="927.888,1510.19 2063.77,2646.07 2062.99,2646.81 2062.19,2647.52 2061.36,2648.18 2060.51,2648.81 2059.63,2649.39 2058.73,2649.93 2057.81,2650.44 2056.87,2650.9 2055.91,2651.32 2054.93,2651.7 2053.94,2652.03 2052.93,2652.32 2051.9,2652.57 2050.87,2652.77 2049.82,2652.93 2048.77,2653.05 912.887,1517.16 913.942,1517.05 914.989,1516.89 916.024,1516.69 917.046,1516.44 918.055,1516.15 919.048,1515.81 920.026,1515.44 920.985,1515.02 921.927,1514.55 922.848,1514.05 923.749,1513.51 924.627,1512.92 925.481,1512.3 926.31,1511.64 927.112,1510.93 "/>
     <polygon id="_304042880" class="fil1" points="912.887,1517.16 2048.77,2653.05 2046.64,2653.05 910.761,1517.16 "/>
     <polygon id="_304043600" class="fil1" points="910.761,1517.16 2046.64,2653.05 2045.44,2653.02 2044.25,2652.94 2043.07,2652.79 2041.9,2652.6 2040.74,2652.35 2039.6,2652.04 2038.48,2651.68 2037.38,2651.27 2036.3,2650.8 2035.25,2650.28 2034.22,2649.71 2033.21,2649.09 2032.24,2648.41 2031.3,2647.68 2030.39,2646.9 894.512,1511.02 895.42,1511.8 896.362,1512.53 897.334,1513.2 898.337,1513.83 899.365,1514.4 900.421,1514.92 901.5,1515.39 902.6,1515.8 903.721,1516.16 904.86,1516.47 906.015,1516.72 907.185,1516.91 908.366,1517.05 909.559,1517.14 "/>
     <polygon id="_304043264" class="fil1" points="812.659,1496.02 1948.54,2631.9 1947.6,2632.24 1946.66,2632.58 1945.72,2632.92 1944.77,2633.25 1943.83,2633.58 1942.88,2633.9 1941.93,2634.21 1940.98,2634.53 1940.02,2634.83 1939.07,2635.14 1938.11,2635.43 1937.16,2635.73 1936.2,2636.02 1935.24,2636.3 1934.28,2636.58 1933.32,2636.86 797.435,1500.97 798.397,1500.7 799.359,1500.42 800.319,1500.13 801.277,1499.85 802.234,1499.55 803.189,1499.25 804.144,1498.95 805.096,1498.64 806.046,1498.33 806.996,1498.01 807.944,1497.69 808.89,1497.37 809.835,1497.04 810.778,1496.7 811.719,1496.36 "/>
     <polygon id="_304043384" class="fil1" points="889.814,1506.36 2025.69,2642.25 1948.54,2642.25 812.659,1506.36 "/>
     <polygon id="_304043192" class="fil1" points="797.435,1500.97 1933.32,2636.86 1916.39,2641.64 780.511,1505.75 "/>
     <polygon id="_304043456" class="fil1" points="780.511,1505.75 1916.39,2641.64 1916.39,2692.93 780.511,1557.05 "/>
     <polygon id="_304043408" class="fil1" points="780.511,1557.05 1916.39,2692.93 1916.36,2694.14 1916.27,2695.33 1916.13,2696.52 1915.92,2697.69 1915.66,2698.84 1915.34,2699.98 1914.97,2701.1 1914.54,2702.19 1914.06,2703.27 1913.53,2704.32 1912.95,2705.35 1912.31,2706.35 1911.63,2707.32 1910.89,2708.26 1910.11,2709.16 1909.28,2710.03 773.395,1574.15 774.226,1573.28 775.009,1572.37 775.745,1571.43 776.43,1570.46 777.066,1569.47 777.65,1568.44 778.183,1567.39 778.662,1566.31 779.089,1565.21 779.462,1564.1 779.779,1562.96 780.041,1561.8 780.245,1560.64 780.392,1559.45 780.481,1558.26 "/>
     <polygon id="_304042928" class="fil1" points="539.516,1342.26 1675.4,2478.15 1624.1,2478.15 488.22,1342.26 "/>
     <polygon id="_304043048" class="fil1" points="686.082,1500.97 1821.96,2636.86 1820.51,2636.44 1819.07,2636.01 1817.63,2635.58 1816.19,2635.13 1814.76,2634.67 1813.33,2634.21 1811.9,2633.73 1810.47,2633.24 1809.05,2632.74 1807.64,2632.23 1806.22,2631.71 1804.81,2631.18 1803.41,2630.64 1802.01,2630.09 1800.61,2629.53 1799.22,2628.95 663.336,1493.07 664.73,1493.64 666.127,1494.2 667.528,1494.75 668.933,1495.3 670.342,1495.83 671.756,1496.35 673.172,1496.86 674.593,1497.36 676.016,1497.84 677.444,1498.32 678.876,1498.79 680.311,1499.25 681.748,1499.7 683.189,1500.13 684.634,1500.56 "/>
     <polygon id="_304018904" class="fil1" points="488.22,1342.26 1624.1,2478.15 1622.89,2478.12 1621.7,2478.03 1620.52,2477.88 1619.35,2477.68 1618.19,2477.41 1617.05,2477.1 1615.94,2476.72 1614.84,2476.3 1613.76,2475.82 1612.71,2475.29 1611.69,2474.7 1610.69,2474.07 1609.72,2473.38 1608.78,2472.64 472.897,1336.76 473.836,1337.5 474.806,1338.18 475.804,1338.82 476.83,1339.4 477.881,1339.94 478.957,1340.42 480.056,1340.84 481.173,1341.21 482.311,1341.53 483.465,1341.79 484.635,1342 485.818,1342.14 487.014,1342.23 "/>
     <polygon id="_304023992" class="fil1" points="703.006,1505.75 1838.89,2641.64 1821.96,2636.86 686.082,1500.97 "/>
     <polygon id="_304028024" class="fil1" points="663.336,1493.07 1799.22,2628.95 1797.82,2628.37 1796.43,2627.78 1795.04,2627.17 1793.66,2626.55 1792.28,2625.93 1790.91,2625.29 1789.54,2624.65 1788.17,2623.99 1786.82,2623.32 1785.46,2622.64 1784.11,2621.96 1782.77,2621.26 1781.43,2620.55 1780.1,2619.84 1778.77,2619.11 1777.45,2618.37 641.568,1482.49 642.891,1483.23 644.219,1483.95 645.551,1484.67 646.89,1485.38 648.233,1486.08 649.582,1486.76 650.936,1487.44 652.294,1488.11 653.658,1488.76 655.027,1489.41 656.399,1490.05 657.778,1490.67 659.161,1491.29 660.547,1491.89 661.94,1492.49 "/>
     <polygon id="_304033760" class="fil1" points="641.568,1482.49 1777.45,2618.37 1762.09,2609.74 626.207,1473.86 "/>
     <polygon id="_304040216" class="fil1" points="626.207,1473.86 1762.09,2609.74 1725.76,2646.07 589.878,1510.19 "/>
     <polygon id="_303927584" class="fil1" points="727.228,1581.27 1863.11,2717.15 1861.9,2717.12 1860.71,2717.03 1859.52,2716.89 1858.35,2716.68 1857.2,2716.42 1856.06,2716.1 1854.94,2715.73 1853.85,2715.3 1852.77,2714.82 1851.72,2714.29 1850.69,2713.71 1849.69,2713.07 1848.72,2712.39 1847.78,2711.65 711.902,1575.77 712.841,1576.5 713.81,1577.19 714.81,1577.83 715.836,1578.41 716.888,1578.94 717.964,1579.42 719.062,1579.85 720.18,1580.22 721.317,1580.54 722.473,1580.8 723.642,1581 724.825,1581.15 726.022,1581.24 "/>
     <polygon id="_303926864" class="fil1" points="589.878,1510.19 1725.76,2646.07 1724.89,2646.9 1723.98,2647.69 1723.04,2648.42 1722.07,2649.1 1721.06,2649.73 1720.04,2650.32 1718.98,2650.84 1717.9,2651.32 1716.8,2651.74 1715.68,2652.11 1714.55,2652.42 1713.39,2652.68 1712.22,2652.88 1711.04,2653.02 1709.84,2653.11 1708.64,2653.14 572.755,1517.26 573.959,1517.23 575.155,1517.14 576.339,1517 577.51,1516.8 578.665,1516.54 579.804,1516.22 580.923,1515.86 582.023,1515.44 583.101,1514.96 584.155,1514.43 585.184,1513.85 586.184,1513.22 587.156,1512.54 588.096,1511.81 589.004,1511.02 "/>
     <polygon id="_303927560" class="fil1" points="572.755,1517.26 1708.64,2653.14 1707.43,2653.11 1706.23,2653.02 1705.05,2652.88 1703.88,2652.68 1702.72,2652.42 1701.59,2652.11 1700.47,2651.74 1699.37,2651.32 1698.29,2650.84 1697.23,2650.32 1696.21,2649.73 1695.21,2649.1 1694.23,2648.42 1693.29,2647.69 557.412,1511.81 558.352,1512.54 559.324,1513.22 560.325,1513.85 561.354,1514.43 562.407,1514.96 563.485,1515.44 564.585,1515.86 565.705,1516.22 566.843,1516.54 568,1516.8 569.17,1517 570.354,1517.14 571.55,1517.23 "/>
     <polygon id="_303926936" class="fil1" points="773.395,1574.15 1909.28,2710.03 1908.4,2710.87 1907.5,2711.65 1906.56,2712.38 1905.59,2713.07 1904.59,2713.71 1903.56,2714.29 1902.51,2714.82 1901.43,2715.3 1900.34,2715.73 1899.22,2716.1 1898.08,2716.42 1896.93,2716.68 1895.76,2716.89 1894.57,2717.03 1893.38,2717.12 1892.17,2717.15 756.29,1581.27 757.496,1581.24 758.692,1581.15 759.876,1581 761.045,1580.8 762.2,1580.54 763.338,1580.22 764.456,1579.85 765.553,1579.42 766.629,1578.94 767.682,1578.41 768.707,1577.82 769.706,1577.19 770.676,1576.5 771.615,1575.77 772.522,1574.98 "/>
     <polygon id="_303927176" class="fil1" points="756.29,1581.27 1892.17,2717.15 1863.11,2717.15 727.228,1581.27 "/>
     <polygon id="_303927368" class="fil1" points="589.878,1096.83 1725.76,2232.71 1762.09,2269.04 626.209,1133.16 "/>
     <polygon id="_303927152" class="fil1" points="566.984,823.255 1702.87,1959.14 1671.64,1959.14 535.761,823.255 "/>
     <polygon id="_303927464" class="fil1" points="656.194,919.856 1792.08,2055.74 1791.19,2055.49 1790.32,2055.23 1789.44,2054.96 1788.56,2054.69 1787.69,2054.41 1786.82,2054.13 1785.95,2053.84 1785.08,2053.54 1784.22,2053.23 1783.35,2052.92 1782.5,2052.61 1781.64,2052.28 1780.78,2051.95 1779.93,2051.62 1779.08,2051.28 1778.23,2050.93 642.349,915.048 643.197,915.395 644.047,915.738 644.9,916.072 645.756,916.401 646.614,916.725 647.474,917.042 648.336,917.351 649.2,917.656 650.067,917.953 650.937,918.244 651.808,918.529 652.681,918.807 653.556,919.079 654.434,919.345 655.313,919.603 "/>
     <polygon id="_303927416" class="fil1" points="812.659,916.179 1948.54,2052.06 1939.25,2061.35 803.373,925.466 "/>
     <polygon id="_303927224" class="fil1" points="803.373,925.466 1939.25,2061.35 1938.29,2062.23 1937.27,2063.01 1936.19,2063.7 1935.05,2064.29 1933.87,2064.77 1932.65,2065.15 1931.4,2065.43 1930.12,2065.59 794.242,929.713 795.521,929.546 796.773,929.271 797.992,928.889 799.172,928.404 800.306,927.817 801.388,927.131 802.412,926.346 "/>
     <polygon id="_303927728" class="fil1" points="794.242,929.713 1930.12,2065.59 1928.83,2065.59 792.948,929.713 "/>
     <polygon id="_303928256" class="fil1" points="792.948,929.713 1928.83,2065.59 1927.37,2065.53 1925.94,2065.32 1924.55,2064.98 1923.19,2064.51 1921.89,2063.91 1920.66,2063.18 1919.49,2062.33 1918.41,2061.35 782.527,925.466 783.611,926.446 784.776,927.301 786.012,928.029 787.312,928.631 788.664,929.101 790.06,929.44 791.492,929.644 "/>
     <polygon id="_303927824" class="fil1" points="760.414,903.355 1896.3,2039.24 1886.95,2044.49 751.065,908.606 "/>
     <polygon id="_303928280" class="fil1" points="751.065,908.606 1886.95,2044.49 1886.14,2044.94 1885.33,2045.38 1884.52,2045.82 1883.71,2046.25 1882.89,2046.67 1882.07,2047.09 1881.24,2047.5 1880.42,2047.91 1879.59,2048.31 1878.75,2048.7 1877.92,2049.09 1877.08,2049.47 1876.24,2049.84 1875.39,2050.21 1874.55,2050.57 1873.7,2050.93 737.814,915.048 738.664,914.692 739.511,914.33 740.356,913.961 741.197,913.586 742.036,913.205 742.871,912.818 743.705,912.424 744.534,912.024 745.362,911.618 746.186,911.206 747.008,910.788 747.825,910.364 748.64,909.934 749.451,909.497 750.259,909.055 "/>
     <polygon id="_303927752" class="fil1" points="737.814,915.048 1873.7,2050.93 1872.85,2051.28 1872,2051.62 1871.14,2051.95 1870.29,2052.28 1869.43,2052.61 1868.57,2052.92 1867.71,2053.23 1866.84,2053.54 1865.98,2053.84 1865.11,2054.13 1864.24,2054.41 1863.36,2054.69 1862.49,2054.96 1861.61,2055.23 1860.73,2055.49 1859.85,2055.74 723.97,919.856 724.851,919.603 725.73,919.345 726.608,919.079 727.483,918.807 728.356,918.529 729.226,918.244 730.095,917.953 730.962,917.656 731.827,917.351 732.689,917.042 733.549,916.725 734.406,916.401 735.263,916.072 736.116,915.738 736.966,915.395 "/>
     <polygon id="_303928184" class="fil1" points="723.97,919.856 1859.85,2055.74 1849.55,2058.65 713.67,922.768 "/>
     <polygon id="_303927776" class="fil1" points="713.67,922.768 1849.55,2058.65 1849.55,2089.87 713.67,953.989 "/>
     <polygon id="_303927800" class="fil1" points="713.67,953.989 1849.55,2089.87 1849.48,2091.33 1849.26,2092.76 1848.91,2094.16 1848.43,2095.51 1847.81,2096.8 1847.07,2098.04 1846.2,2099.2 1845.22,2100.28 709.338,964.399 710.321,963.316 711.186,962.154 711.929,960.921 712.545,959.626 713.031,958.278 713.383,956.883 713.598,955.45 "/>
     <polygon id="_303927872" class="fil1" points="666.494,922.766 1802.38,2058.65 1792.08,2055.74 656.194,919.856 "/>
     <polygon id="_303927920" class="fil1" points="535.761,823.255 1671.64,1959.14 1670.18,1959.07 1668.75,1958.85 1667.35,1958.5 1666.01,1958.01 1664.71,1957.4 1663.48,1956.65 1662.32,1955.79 1661.23,1954.81 525.352,818.924 526.435,819.907 527.596,820.771 528.83,821.514 530.124,822.131 531.473,822.616 532.868,822.968 534.3,823.183 "/>
     <polygon id="_303928016" class="fil1" points="642.349,915.048 1778.23,2050.93 1777.38,2050.57 1776.53,2050.21 1775.69,2049.84 1774.85,2049.47 1774.01,2049.09 1773.17,2048.7 1772.34,2048.31 1771.51,2047.91 1770.68,2047.5 1769.86,2047.09 1769.04,2046.67 1768.22,2046.25 1767.41,2045.82 1766.59,2045.38 1765.79,2044.94 1764.98,2044.49 629.1,908.607 629.905,909.056 630.713,909.498 631.524,909.935 632.339,910.365 633.156,910.789 633.977,911.207 634.802,911.619 635.628,912.024 636.458,912.425 637.291,912.818 638.126,913.205 638.966,913.587 639.807,913.961 640.652,914.33 641.499,914.692 "/>
     <polygon id="_303928856" class="fil1" points="709.338,964.399 1845.22,2100.28 1844.14,2101.26 1842.97,2102.13 1841.74,2102.87 1840.45,2103.49 1839.1,2103.97 1837.7,2104.33 1836.27,2104.54 1834.81,2104.61 698.927,968.731 700.39,968.659 701.821,968.444 703.216,968.092 704.565,967.606 705.86,966.989 707.092,966.248 708.254,965.382 "/>
     <polygon id="_303928664" class="fil1" points="629.1,908.607 1764.98,2044.49 1755.63,2039.24 619.75,903.355 "/>
     <polygon id="_303928976" class="fil1" points="619.75,903.355 1755.63,2039.24 1733.52,2061.35 597.637,925.466 "/>
     <polygon id="_303928904" class="fil1" points="681.238,968.731 1817.12,2104.61 1815.66,2104.54 1814.22,2104.33 1812.83,2103.97 1811.48,2103.49 1810.18,2102.87 1808.95,2102.13 1807.79,2101.27 1806.71,2100.28 670.827,964.399 671.91,965.383 673.072,966.248 674.304,966.991 675.599,967.607 676.948,968.092 678.343,968.444 679.776,968.659 "/>
     <polygon id="_303928712" class="fil1" points="698.927,968.731 1834.81,2104.61 1817.12,2104.61 681.238,968.731 "/>
     <polygon id="_303928496" class="fil1" points="597.637,925.466 1733.52,2061.35 1732.43,2062.33 1731.27,2063.19 1730.04,2063.93 1728.74,2064.54 1727.39,2065.02 1725.99,2065.37 1724.56,2065.58 1723.1,2065.65 587.215,929.768 588.676,929.697 590.109,929.487 591.506,929.14 592.856,928.659 594.154,928.048 595.388,927.31 596.553,926.449 "/>
     <polygon id="_303928808" class="fil1" points="587.215,929.768 1723.1,2065.65 1721.64,2065.58 1720.2,2065.37 1718.81,2065.02 1717.45,2064.54 1716.16,2063.93 1714.92,2063.19 1713.76,2062.33 1712.67,2061.35 576.792,925.466 577.876,926.449 579.041,927.311 580.276,928.048 581.573,928.659 582.924,929.14 584.321,929.487 585.754,929.697 "/>
     <polygon id="_303928520" class="fil1" points="773.395,1032.87 1909.28,2168.75 1910.11,2169.63 1910.89,2170.53 1911.63,2171.47 1912.31,2172.44 1912.95,2173.44 1913.53,2174.47 1914.06,2175.52 1914.54,2176.59 1914.97,2177.69 1915.34,2178.81 1915.66,2179.95 1915.92,2181.1 1916.13,2182.27 1916.27,2183.45 1916.36,2184.65 1916.39,2185.85 780.511,1049.97 780.481,1048.77 780.392,1047.57 780.245,1046.39 780.041,1045.22 779.779,1044.06 779.462,1042.93 779.089,1041.81 778.662,1040.71 778.183,1039.63 777.65,1038.58 777.066,1037.56 776.43,1036.56 775.745,1035.59 775.009,1034.65 774.226,1033.74 "/>
     <polygon id="_303928544" class="fil1" points="780.511,1049.97 1916.39,2185.85 1916.39,2237.15 780.511,1101.27 "/>
     <polygon id="_303928760" class="fil1" points="597.637,673.869 1733.52,1809.75 1755.63,1831.86 619.751,695.982 "/>
     <polygon id="_303929432" class="fil1" points="709.338,634.937 1845.22,1770.82 1846.2,1771.9 1847.07,1773.07 1847.81,1774.3 1848.43,1775.59 1848.91,1776.94 1849.26,1778.34 1849.48,1779.77 1849.55,1781.23 713.67,645.347 713.598,643.886 713.383,642.453 713.031,641.059 712.545,639.709 711.929,638.415 711.186,637.183 710.321,636.021 "/>
     <polygon id="_303929336" class="fil1" points="713.67,645.347 1849.55,1781.23 1849.55,1812.45 713.67,676.57 "/>
     <polygon id="_303929792" class="fil1" points="1584,1506.36 2719.88,2642.25 2067.59,2642.25 931.712,1506.36 "/>
    </g>
    <path id="_308711584" class="fil1" d="M812.659 466.729l771.342 0 0 1039.64 -652.289 0 -3.82441 3.82441c-4.06063,4.05945 -9.34371,6.4878 -15.0012,6.9756l-2.12599 0c-6.42638,0.0011811 -12.5622,-2.41536 -17.1213,-6.97441l-3.82559 -3.82559 -77.1544 0 0 -10.3476c-5.00788,1.84843 -10.0866,3.50315 -15.2244,4.95591l-16.924 4.78111 0 51.2965c0,6.45473 -2.55591,12.5421 -7.11615,17.1012 -4.56024,4.56142 -10.6476,7.11851 -17.1047,7.11851l-29.0622 0c-6.45709,0 -12.5445,-2.55591 -17.1059,-7.11733 -4.56024,-4.56024 -7.11615,-10.6465 -7.11615,-17.1024l0 -51.2965 -16.924 -4.78111c-7.72914,-2.18504 -15.326,-4.82717 -22.7457,-7.90158 -7.45867,-3.08859 -14.7295,-6.62599 -21.7677,-10.5803l-15.3614 -8.63032 -36.3284 36.3296c-4.56496,4.56496 -10.6736,7.06654 -17.1236,7.06654 -6.45119,0 -12.5599,-2.50158 -17.1248,-7.06654l-20.55 -20.5512c-4.56496,-4.56496 -7.06654,-10.6736 -7.06654,-17.1248 0,-6.45119 2.5004,-12.5587 7.06536,-17.1236l36.3319 -36.3296 -8.63032 -15.3614c-3.95433,-7.03938 -7.49174,-14.3114 -10.5827,-21.7713 -3.07323,-7.41851 -5.71654,-15.0142 -7.89922,-22.7421l-4.78229 -16.9228 -51.2965 0c-6.45591,0 -12.5421,-2.55591 -17.1024,-7.11615 -4.56142,-4.56142 -7.11851,-10.6476 -7.11851,-17.1047l0 -29.0634c0,-6.45591 2.55591,-12.5445 7.11733,-17.1047 4.56024,-4.56024 10.6476,-7.11615 17.1036,-7.11615l51.2977 0 4.78111 -16.9252c2.18386,-7.7315 4.82717,-15.3284 7.90158,-22.7492 3.08977,-7.45749 6.62599,-14.726 10.5791,-21.763l8.62796 -15.3602 -36.3284 -36.3296c-4.56024,-4.55906 -6.9756,-10.6961 -6.97441,-17.1213l0 -2.12717c0.486615,-5.65748 2.91496,-10.9394 6.9756,-15.0012l20.55 -20.5512c4.56496,-4.56496 10.6736,-7.06536 17.1248,-7.06536 6.45,0 12.5587,2.50158 17.1236,7.06654l36.3307 36.3296 15.3614 -8.62914c7.03819,-3.95433 14.3102,-7.49174 21.7689,-10.5827 7.41851,-3.07323 15.0142,-5.71536 22.741,-7.89804l16.9252 -4.78111 0 -51.2989c0,-6.45473 2.55591,-12.5421 7.11615,-17.1024 4.56142,-4.56142 10.6488,-7.11733 17.1059,-7.11733l29.0622 0c6.45709,0 12.5445,2.55709 17.1047,7.11851 4.56024,4.56024 7.11615,10.6465 7.11615,17.1012l0 51.2977 16.9228 4.78229c5.1378,1.45276 10.2177,3.1063 15.2256,4.95473l0 -194.827 -9.28583 9.28702c-2.47205,2.47087 -5.68819,3.94843 -9.13111,4.24607l-1.29449 0c-3.91063,0 -7.64646,-1.47047 -10.4209,-4.24607l-22.1126 -22.1114 -9.34961 5.25119c-4.28504,2.40709 -8.71064,4.56024 -13.2508,6.44174 -4.51654,1.87087 -9.14056,3.47953 -13.8437,4.80827l-10.3004 2.91142 0 31.2213c0,3.92835 -1.55551,7.63465 -4.33229,10.4102 -2.77559,2.77559 -6.48071,4.33229 -10.4102,4.33229l-17.6894 0c-3.93071,0 -7.63583,-1.55551 -10.4114,-4.33229 -2.77559,-2.77559 -4.33229,-6.48071 -4.33229,-10.4102l0 -31.2225 -10.3004 -2.91024c-4.70433,-1.32874 -9.32835,-2.9374 -13.8449,-4.80827 -4.54016,-1.8815 -8.96575,-4.03347 -13.2484,-6.44056l-9.35079 -5.25237 -22.1126 22.1114c-2.77795,2.77795 -6.49607,4.30158 -10.4221,4.30158 -3.92599,0 -7.6441,-1.52244 -10.4232,-4.30158l-12.5079 -12.5079c-2.77795,-2.77914 -4.30158,-6.49725 -4.30158,-10.4232 0,-3.92599 1.52244,-7.6441 4.30158,-10.4232l22.1138 -22.1126 -5.25355 -9.34961c-2.40709,-4.28504 -4.56024,-8.71182 -6.44174,-13.252 -1.86969,-4.51536 -3.47953,-9.1382 -4.80827,-13.8413l-2.91024 -10.3016 -31.2225 0c-3.92835,0 -7.63465,-1.55551 -10.4091,-4.33111 -2.77677,-2.77677 -4.33347,-6.48071 -4.33347,-10.4114l0 -17.6894c0,-3.92953 1.55551,-7.63465 4.33229,-10.4114 2.77559,-2.77559 6.48071,-4.33111 10.4102,-4.33111l31.2236 0 2.91024 -10.3016c1.32874,-4.70552 2.9374,-9.32953 4.80945,-13.8473 1.88032,-4.53898 4.03229,-8.96339 6.43819,-13.2461l5.25237 -9.34961 -22.1114 -22.1126c-2.77559,-2.77441 -4.24607,-6.51024 -4.24607,-10.4209l0 -1.29449c0.296457,-3.4441 1.77402,-6.65906 4.24607,-9.12993l12.5079 -12.5102c2.77914,-2.77795 6.49725,-4.3004 10.4232,-4.3004 3.92599,0 7.6441,1.52244 10.4221,4.30158l22.1138 22.1126 9.34961 -5.25237c4.28504,-2.40709 8.71064,-4.56024 13.2508,-6.44174 4.51536,-1.86969 9.1382,-3.47835 13.8425,-4.80709l10.3004 -2.91024 0 -31.2236c0,-3.92953 1.55669,-7.63347 4.33229,-10.4102 2.77559,-2.77559 6.48071,-4.33111 10.4114,-4.33111l17.6894 0c3.92953,0 7.63465,1.55669 10.4102,4.33229 2.77677,2.77559 4.33229,6.48071 4.33229,10.4091l0 31.2236 10.3004 2.91024c4.70552,1.32992 9.33072,2.9374 13.8473,4.80945 4.53898,1.8815 8.96339,4.03347 13.2461,6.43938l9.35079 5.25237 22.1114 -22.1126c2.77795,-2.77795 6.49725,-4.3004 10.4232,-4.3004 3.92717,0 7.64528,1.52244 10.4244,4.3004l9.28583 9.28702 0 -216.427z"/>
   </g>
  </g>
  <path class="fil2" d="M1024 0c565.541,0 1024,458.459 1024,1024 0,565.541 -458.459,1024 -1024,1024 -565.541,0 -1024,-458.459 -1024,-1024 0,-565.541 458.459,-1024 1024,-1024z"/>
  <polygon class="fil3" points="812.659,466.729 1584,466.729 1584,1506.36 812.659,1506.36 "/>
  <polygon class="fil4" points="847.524,501.594 847.524,1471.5 1549.14,1471.5 1549.14,501.594 "/>
  <path class="fil5" d="M560.038 695.508l0 1.29449c-0.0011811,3.91063 1.46929,7.64646 4.24489,10.4209l22.1126 22.1126 -5.25237 9.34961c-2.40591,4.28386 -4.55788,8.70709 -6.43819,13.2461 -1.87205,4.51654 -3.48071,9.14174 -4.80945,13.8473l-2.91024 10.3016 -31.2236 0c-3.92953,0 -7.63465,1.55551 -10.4102,4.33111 -2.77677,2.77677 -4.33229,6.48189 -4.33229,10.4114l0 17.6894c0,3.93071 1.55669,7.63583 4.33347,10.4114 2.77441,2.77559 6.47953,4.33111 10.4091,4.33111l31.2225 0 2.91024 10.3016c1.32992,4.70315 2.93858,9.32599 4.80827,13.8413 1.8815,4.54016 4.03465,8.96694 6.44174,13.252l5.25237 9.34961 -22.1138 22.1126c-2.77795,2.77795 -4.3004,6.49607 -4.3004,10.4232 0,3.92599 1.52244,7.6441 4.30158,10.4232l12.5079 12.5091c2.77914,2.77795 6.49725,4.3004 10.4232,4.3004 3.92599,0 7.6441,-1.52244 10.4232,-4.30158l22.1114 -22.1114 9.34961 5.25237c4.28386,2.40709 8.70946,4.56024 13.2496,6.44056 4.51654,1.87087 9.14056,3.47953 13.8449,4.80827l10.3004 2.91024 0 31.2225c0,3.92953 1.55551,7.63465 4.33229,10.4102 2.77559,2.77677 6.48071,4.33229 10.4114,4.33229l17.6894 0c3.92953,0 7.63465,-1.55669 10.4102,-4.33347 2.77677,-2.77441 4.33229,-6.47953 4.33229,-10.4091l0 -31.2213 10.3004 -2.91142c4.70433,-1.32874 9.32835,-2.9374 13.8437,-4.80827 4.54016,-1.8815 8.96694,-4.03465 13.2508,-6.44174l9.34961 -5.25119 22.1126 22.1114c2.77441,2.77559 6.51024,4.24607 10.4209,4.24607l1.29449 0c3.4441,-0.296457 6.65906,-1.7752 9.12993,-4.24607l12.5091 -12.5091c2.77795,-2.77795 4.30158,-6.49725 4.30158,-10.4221 0,-3.92717 -1.52362,-7.64528 -4.30158,-10.4232l-22.1126 -22.1126 5.25237 -9.34961c2.40591,-4.28386 4.56024,-8.70827 6.44056,-13.2473 1.87087,-4.51654 3.47953,-9.14174 4.80827,-13.8461l2.91024 -10.3016 31.2236 0c3.92835,0 7.63347,-1.55551 10.4091,-4.33111 2.77677,-2.77559 4.33229,-6.48071 4.33229,-10.4114l0 -17.6894c0,-3.92953 -1.55551,-7.63465 -4.33229,-10.4114 -2.77441,-2.77559 -6.47953,-4.33111 -10.4091,-4.33111l-31.2236 0 -2.91142 -10.3016c-1.32874,-4.70433 -2.93622,-9.32953 -4.80827,-13.8461 -1.88032,-4.53898 -4.03347,-8.96339 -6.43938,-13.2473l-5.25237 -9.34961 22.1126 -22.1126c2.77795,-2.77795 4.30158,-6.49607 4.30158,-10.4232 0,-3.92599 -1.52244,-7.6441 -4.30158,-10.4221l-12.5091 -12.5091c-2.77795,-2.77795 -6.49725,-4.3004 -10.4232,-4.3004 -3.92599,0 -7.6441,1.52244 -10.4232,4.3004l-22.1114 22.1126 -9.35079 -5.25237c-4.28268,-2.40591 -8.70709,-4.55906 -13.2461,-6.43938 -4.51654,-1.87087 -9.14174,-3.47953 -13.8473,-4.80945l-10.3004 -2.91024 0 -31.2236c0,-3.92835 -1.55551,-7.63347 -4.33229,-10.4091 -2.77559,-2.77677 -6.48071,-4.33229 -10.4102,-4.33229l-17.6894 0c-3.93071,0 -7.63583,1.55551 -10.4114,4.33229 -2.77677,2.77559 -4.33229,6.47953 -4.33229,10.4091l0 31.2236 -10.3016 2.91024c-4.70315,1.32874 -9.32599,2.9374 -13.8413,4.80709 -4.54016,1.8815 -8.96575,4.03465 -13.2508,6.44174l-9.34961 5.25237 -22.1126 -22.1126c-2.77914,-2.77914 -6.49725,-4.30158 -10.4232,-4.30158 -3.92599,0 -7.6441,1.52244 -10.4232,4.3004l-12.5079 12.5091c-2.47205,2.47205 -3.94961,5.68701 -4.24607,9.13111zm130.044 19.4256c23.3977,0 44.5807,9.48544 59.9162,24.8197 15.3331,15.3343 24.8185,36.5174 24.8185,59.915 0,23.3965 -9.48544,44.5819 -24.8185,59.915 -15.3354,15.3343 -36.5185,24.8185 -59.9162,24.8185 -23.3965,0 -44.5819,-9.48426 -59.915,-24.8185 -15.3343,-15.3331 -24.8185,-36.5185 -24.8185,-59.915 0,-23.3977 9.48426,-44.5807 24.8185,-59.915 15.3331,-15.3343 36.5185,-24.8197 59.915,-24.8197z"/>
  <polygon class="fil6" points="956.415,629.437 1440.24,629.437 1440.24,646.87 956.415,646.87 "/>
  <polygon class="fil6" points="900.112,688.441 1496.55,688.441 1496.55,705.875 900.112,705.875 "/>
  <polygon class="fil6" points="900.112,747.445 1496.55,747.445 1496.55,764.878 900.112,764.878 "/>
  <polygon class="fil6" points="900.112,806.449 1496.55,806.449 1496.55,823.882 900.112,823.882 "/>
  <polygon class="fil6" points="900.112,865.453 1496.55,865.453 1496.55,882.885 900.112,882.885 "/>
  <polygon class="fil6" points="900.112,924.457 1496.55,924.457 1496.55,941.89 900.112,941.89 "/>
  <polygon class="fil6" points="900.112,983.461 1496.55,983.461 1496.55,1000.89 900.112,1000.89 "/>
  <polygon class="fil6" points="900.112,1042.46 1496.55,1042.46 1496.55,1059.9 900.112,1059.9 "/>
  <polygon class="fil6" points="900.112,1101.47 1496.55,1101.47 1496.55,1118.9 900.112,1118.9 "/>
  <polygon class="fil6" points="900.112,1160.47 1496.55,1160.47 1496.55,1177.9 900.112,1177.9 "/>
  <polygon class="fil6" points="900.112,1219.47 1496.55,1219.47 1496.55,1236.91 900.112,1236.91 "/>
  <polygon class="fil6" points="900.112,1278.48 1496.55,1278.48 1496.55,1295.91 900.112,1295.91 "/>
  <polygon class="fil6" points="900.112,1337.48 1496.55,1337.48 1496.55,1354.92 900.112,1354.92 "/>
  <polygon class="fil6" points="900.112,1396.49 1496.55,1396.49 1496.55,1413.92 900.112,1413.92 "/>
  <path class="fil7" d="M528.104 1132.38l0 2.12717c-0.0011811,6.4252 2.41418,12.5622 6.97441,17.1213l36.3284 36.3296 -8.62796 15.3602c-3.95315,7.03701 -7.48938,14.3055 -10.5791,21.763 -3.07441,7.42087 -5.71772,15.0177 -7.90158,22.7492l-4.78111 16.9252 -51.2977 0c-6.45591,0 -12.5433,2.55591 -17.1036,7.11615 -4.56142,4.56024 -7.11733,10.6488 -7.11733,17.1047l0 29.0634c0,6.45709 2.55709,12.5433 7.11851,17.1047 4.56024,4.56024 10.6465,7.11615 17.1024,7.11615l51.2965 0 4.78229 16.9228c2.18268,7.72796 4.82599,15.3236 7.89922,22.7421 3.09095,7.45985 6.62835,14.7319 10.5827,21.7713l8.63032 15.3614 -36.3319 36.3296c-4.56496,4.56496 -7.06536,10.6724 -7.06536,17.1236 0,6.45119 2.50158,12.5599 7.06654,17.1248l20.55 20.5512c4.56496,4.56496 10.6736,7.06654 17.1248,7.06654 6.45,0 12.5587,-2.50158 17.1236,-7.06654l36.3284 -36.3296 15.3614 8.63032c7.03819,3.95433 14.3091,7.49174 21.7677,10.5803 7.41969,3.07441 15.0165,5.71654 22.7457,7.90158l16.924 4.78111 0 51.2965c0,6.45591 2.55591,12.5421 7.11615,17.1024 4.56142,4.56142 10.6488,7.11733 17.1059,7.11733l29.0622 0c6.45709,0 12.5445,-2.55709 17.1047,-7.11851 4.56024,-4.55906 7.11615,-10.6465 7.11615,-17.1012l0 -51.2965 16.924 -4.78111c7.72796,-2.18504 15.3248,-4.82717 22.7433,-7.90158 7.45985,-3.08977 14.7319,-6.62835 21.7713,-10.5815l15.3602 -8.62914 36.3296 36.3296c4.55906,4.55906 10.6949,6.9756 17.1213,6.97441l2.12599 0c5.65748,-0.487796 10.9406,-2.91614 15.0012,-6.9756l20.5512 -20.5512c4.56378,-4.56378 7.06536,-10.6736 7.06536,-17.1236 0,-6.45119 -2.50158,-12.5587 -7.06654,-17.1236l-36.3284 -36.3296 8.62914 -15.3614c3.95197,-7.03701 7.49056,-14.3067 10.5803,-21.7642 3.07441,-7.42087 5.71654,-15.0177 7.89922,-22.748l4.78229 -16.924 51.2977 0c6.45473,0 12.5421,-2.55591 17.1024,-7.11615 4.56142,-4.56142 7.11733,-10.6476 7.11733,-17.1047l0 -29.0634c0,-6.45591 -2.55473,-12.5445 -7.11733,-17.1047 -4.55906,-4.56024 -10.6465,-7.11615 -17.1024,-7.11615l-51.2977 0 -4.78229 -16.924c-2.18386,-7.73032 -4.82481,-15.3284 -7.9004,-22.748 -3.08859,-7.45749 -6.62717,-14.7272 -10.5791,-21.7654l-8.62914 -15.3602 36.3284 -36.3296c4.56496,-4.56496 7.06654,-10.6736 7.06654,-17.1248 0,-6.45 -2.5004,-12.5587 -7.06536,-17.1236l-20.5512 -20.55c-4.56496,-4.56496 -10.6748,-7.06772 -17.126,-7.06772 -6.44882,0 -12.5599,2.50276 -17.1236,7.06654l-36.3284 36.3307 -15.3626 -8.63032c-7.03583,-3.95315 -14.3055,-7.48938 -21.7618,-10.5791 -7.42205,-3.07441 -15.0213,-5.71654 -22.7516,-7.90158l-16.9228 -4.78229 0 -51.2977c0,-6.45473 -2.55591,-12.541 -7.11615,-17.1012 -4.56024,-4.56142 -10.6476,-7.11851 -17.1047,-7.11851l-29.0622 0c-6.45709,0 -12.5445,2.55591 -17.1059,7.11733 -4.56024,4.56024 -7.11615,10.6476 -7.11615,17.1024l0 51.2989 -16.9252 4.78111c-7.72678,2.18268 -15.3225,4.82481 -22.741,7.89804 -7.45867,3.09095 -14.7307,6.62835 -21.7689,10.5827l-15.3614 8.62914 -36.3307 -36.3296c-4.56496,-4.56496 -10.6736,-7.06654 -17.1236,-7.06654 -6.45119,0 -12.5599,2.5004 -17.1248,7.06536l-20.55 20.5512c-4.06063,4.06181 -6.48898,9.34371 -6.9756,15.0012zm213.654 31.9158c38.4402,0 73.2438,15.5835 98.4367,40.7752 25.1918,25.1941 40.7764,59.9977 40.7764,98.4379 0,38.439 -15.5847,73.2449 -40.7764,98.4367 -25.1929,25.1929 -59.9965,40.7764 -98.4367,40.7764 -38.4402,0 -73.2449,-15.5835 -98.4367,-40.7764 -25.1941,-25.1918 -40.7764,-59.9977 -40.7764,-98.4367 0,-38.4402 15.5823,-73.2438 40.7764,-98.4379 25.1918,-25.1918 59.9965,-40.7752 98.4367,-40.7752z"/>
 </g>
</svg>
