<?xml version="1.0" encoding="UTF-8"?>
<!DOCTYPE svg PUBLIC "-//W3C//DTD SVG 1.1//EN" "http://www.w3.org/Graphics/SVG/1.1/DTD/svg11.dtd">
<!-- Creator: CorelDRAW -->
<svg xmlns="http://www.w3.org/2000/svg" xml:space="preserve" width="2048px" height="2048px" style="shape-rendering:geometricPrecision; text-rendering:geometricPrecision; image-rendering:optimizeQuality; fill-rule:evenodd; clip-rule:evenodd"
viewBox="0 0 2048 2048"
 xmlns:xlink="http://www.w3.org/1999/xlink">
 <defs>
  <style type="text/css">
   <![CDATA[
    .fil2 {fill:none}
    .fil0 {fill:#212121;fill-rule:nonzero}
    .fil1 {fill:#66BB6A;fill-rule:nonzero}
   ]]>
  </style>
 </defs>
 <g id="Layer_x0020_1">
  <metadata id="CorelCorpID_0Corel-Layer"/>
  <g id="_460808120">
   <path id="_460808624" class="fil0" d="M859.619 869.401c20.8854,4.87087 41.0445,11.3787 60.3331,19.3736 19.7268,8.1756 38.6138,17.8973 56.5063,29.0067l76.9961 -76.9961 -0.0011811 -0.0011811c9.37205,-9.37205 24.5681,-9.37205 33.9402,0l0.0862205 0.0885827 92.5123 92.5135 -16.9689 16.9689 16.9713 -16.9701c9.37205,9.37205 9.37087,24.5693 -0.0011811,33.9414l-0.133465 0.129921 -76.8638 76.8638c11.1059,17.8902 20.824,36.7737 28.9996,56.4969 7.99725,19.291 14.5051,39.4536 19.3772,60.3414l108.91 0c13.2543,0 24,10.7457 24,24l0 130.957c0,13.2543 -10.7457,24 -24,24l-108.906 0c-4.87087,20.8866 -11.3787,41.0469 -19.3748,60.3355 -8.1756,19.7256 -17.8984,38.6103 -29.0055,56.5028l76.9973 76.9961 0.0011811 -0.00236221c9.37205,9.37205 9.37324,24.5693 0.0011811,33.9414l-0.133465 0.129921 -92.4698 92.4686 -16.9689 -16.9689 16.9701 16.9713c-9.37205,9.37205 -24.5693,9.37087 -33.9414,-0.0011811l-0.129921 -0.133465 -76.8638 -76.8627c-17.8949,11.1095 -36.7843,20.8311 -56.5122,29.0091 -19.2862,7.99489 -39.4429,14.5004 -60.3272,19.3713l0 108.906c0,13.2543 -10.7457,24 -24,24l-130.956 0c-13.2543,0 -24,-10.7457 -24,-24l0 -108.906c-20.8843,-4.87087 -41.041,-11.3776 -60.326,-19.3725 -19.728,-8.17796 -38.6162,-17.8996 -56.5122,-29.0091l-76.9973 76.9973 0.0011811 0.0011811c-9.37205,9.37205 -24.5681,9.37205 -33.9402,0l-0.0862205 -0.0885827 -92.5123 -92.5135 16.9689 -16.9689 -16.9713 16.9701c-9.37205,-9.37205 -9.37087,-24.5693 0.0011811,-33.9414l0.133465 -0.129921 76.8638 -76.8627c-11.1071,-17.889 -20.8252,-36.7748 -29.0008,-56.4981 -7.99725,-19.291 -14.5051,-39.4536 -19.3772,-60.3414l-108.908 0c-13.2543,0 -24,-10.7457 -24,-24l0 -130.957c0,-13.2543 10.7457,-24 24,-24l108.908 0c4.87087,-20.8843 11.3776,-41.0398 19.3713,-60.3248 8.17678,-19.728 17.8984,-38.6174 29.0079,-56.5122l-76.9973 -76.9985 16.9689 -16.9689 -16.9713 16.9701c-9.37205,-9.37205 -9.37087,-24.5693 0.0011811,-33.9414l0.133465 -0.129921 92.4686 -92.4674 16.9689 16.9689 -16.9701 -16.9713c9.37205,-9.37205 24.5693,-9.37087 33.9414,0.0011811l0.129921 0.133465 76.8627 76.8627c17.8914,-11.1095 36.7784,-20.8288 56.5028,-29.0044 19.2898,-7.99607 39.45,-14.5039 60.3367,-19.3748l0 -108.905c0,-13.2543 10.7457,-24 24,-24l130.956 0c13.2543,0 24,10.7457 24,24l0 108.905zm41.9575 63.6249c-21.8303,-9.04961 -44.6492,-15.9012 -68.1768,-20.2772 -12.2138,-1.11969 -21.7807,-11.3917 -21.7807,-23.8973l0 -104.355 -82.956 0 0 104.098c0.137008,11.511 -8.04686,21.7736 -19.7528,23.8784l-4.24725 -23.6209 4.2189 23.5311c-24.2327,4.35709 -47.7307,11.3386 -70.18,20.6445 -22.4374,9.30001 -43.7256,20.9528 -63.5587,34.6536 -9.40631,7.14095 -22.8756,6.42166 -31.4599,-2.1626l0.0011811 -0.0011811 -73.8249 -73.8249 -58.663 58.6619 73.4812 73.4823c8.37875,8.02678 9.91654,21.1772 3.08622,31.0075l-19.7103 -13.6937 19.6878 13.6878c-13.9394,20.0634 -25.7847,41.628 -35.2111,64.3713 -9.04843,21.828 -15.8988,44.6457 -20.276,68.1709 -1.12087,12.2126 -11.3917,21.7784 -23.8973,21.7784l-104.358 0 0 82.9572 104.099 0c11.511,-0.137008 21.7748,8.04568 23.8795,19.7516l-23.6209 4.24843 23.5311 -4.2189c4.35827,24.2339 11.341,47.7319 20.648,70.1847 9.29646,22.428 20.9433,43.7091 34.6359,63.5351 7.15749,9.40631 6.44174,22.8898 -2.14843,31.4799l-0.0011811 -0.00236221 -73.826 73.8249 58.6619 58.663 73.4812 -73.4812c8.02678,-8.37875 21.1772,-9.91654 31.0075,-3.08622l-13.6937 19.7103 13.6878 -19.6878c20.0658,13.9406 41.6292,25.7847 64.3713,35.2122 21.828,9.04843 44.6469,15.8988 68.1721,20.2772 12.2126,1.12087 21.7784,11.3917 21.7784,23.8973l0 104.355 82.956 0 0 -104.099c-0.137008,-11.511 8.04804,-21.7736 19.754,-23.8772l4.24607 23.6209 -4.2189 -23.5311c24.2315,-4.35591 47.7248,-11.3374 70.1705,-20.6421 22.4339,-9.30001 43.7174,-20.948 63.5481,-34.6418 9.40749,-7.15749 22.891,-6.4441 31.4811,2.14606l-16.9701 16.9713 16.9689 -16.9689 73.8249 73.8237 58.663 -58.6619 -73.5237 -73.5225c-8.34095,-8.03032 -9.86103,-21.1536 -3.04252,-30.9662l19.7091 13.6949 -19.6878 -13.6878c13.9394,-20.061 25.7823,-41.6209 35.2087,-64.3619 9.04961,-21.8315 15.9012,-44.6528 20.2784,-68.1792 1.11969,-12.2138 11.3917,-21.7807 23.8973,-21.7807l104.356 0 0 -82.9572 -104.054 0c-11.5287,0.158268 -21.8162,-8.03032 -23.9244,-19.7504l23.6209 -4.24961 -23.5311 4.2189c-4.35945,-24.2339 -11.3421,-47.7319 -20.6492,-70.1847 -9.30001,-22.4362 -20.9504,-43.7221 -34.6477,-63.554 -7.14095,-9.40631 -6.42166,-22.8756 2.1626,-31.4599l0.0011811 0.0011811 73.8249 -73.8249 -58.6619 -58.663 -73.4823 73.4823c-8.02678,8.37875 -21.1795,9.91536 -31.0087,3.08386l13.6961 -19.7091 -13.6878 19.6878c-20.061,-13.9406 -41.6221,-25.7847 -64.3642,-35.2111z"/>
   <path id="_460808144" class="fil0" d="M770.141 965.708c78.678,0 149.912,31.8933 201.474,83.4556 51.5622,51.5622 83.4556,122.796 83.4556,201.474 0,78.678 -31.8933,149.912 -83.4556,201.473 -51.5622,51.5622 -122.796,83.4556 -201.474,83.4556 -78.678,0 -149.912,-31.8933 -201.473,-83.4556 -51.5622,-51.5611 -83.4556,-122.795 -83.4556,-201.473 0,-78.678 31.8933,-149.912 83.4556,-201.474 51.5611,-51.5622 122.795,-83.4556 201.473,-83.4556zm167.536 117.393c-42.874,-42.874 -102.109,-69.3934 -167.536,-69.3934 -65.4272,0 -124.662,26.5193 -167.535,69.3934 -42.874,42.874 -69.3934,102.109 -69.3934,167.536 0,65.4272 26.5193,124.662 69.3934,167.535 42.8729,42.874 102.108,69.3934 167.535,69.3934 65.4272,0 124.662,-26.5193 167.536,-69.3934 42.874,-42.8729 69.3934,-102.108 69.3934,-167.535 0,-65.4272 -26.5193,-124.662 -69.3934,-167.536z"/>
   <path id="_460808576" class="fil0" d="M770.141 1104.1c40.4622,0 77.0977,16.4032 103.615,42.9213 26.5181,26.5169 42.9213,63.1524 42.9213,103.615 0,40.4622 -16.4032,77.0965 -42.9213,103.613 -26.5169,26.5181 -63.1524,42.9213 -103.615,42.9213 -40.4622,0 -77.0965,-16.4032 -103.613,-42.9213 -26.5181,-26.5169 -42.9213,-63.1512 -42.9213,-103.613 0,-40.4622 16.4032,-77.0977 42.9213,-103.615 26.5169,-26.5181 63.1512,-42.9213 103.613,-42.9213zm69.6768 76.8591c-17.8288,-17.8299 -42.4654,-28.8591 -69.6768,-28.8591 -27.2114,0 -51.8469,11.0291 -69.6756,28.8591 -17.8299,17.8288 -28.8591,42.4654 -28.8591,69.6768 0,27.2114 11.0291,51.8469 28.8591,69.6756 17.8288,17.8299 42.4642,28.8591 69.6756,28.8591 27.2114,0 51.8481,-11.0291 69.6768,-28.8591 17.8299,-17.8288 28.8591,-42.4642 28.8591,-69.6756 0,-27.2114 -11.0291,-51.8481 -28.8591,-69.6768z"/>
  </g>
  <path class="fil1" d="M1437.28 365.458c12.5043,-0.0897638 24.991,0.705119 37.3784,2.33977 12.5126,1.65 24.8457,4.17992 36.9166,7.54016l33.3709 -57.8008 20.7189 11.9067 -20.7851 -12c6.62717,-11.4791 21.3059,-15.4122 32.7851,-8.78505 0.478347,0.276378 0.940158,0.56693 1.39252,0.870473l74.5571 43.0453 0.0283465 -0.0496063c11.4791,6.62717 15.4122,21.3059 8.78505,32.7851 -0.276378,0.478347 -0.56693,0.940158 -0.870473,1.39252l-32.5607 56.3977c8.91379,8.7567 17.2618,18.1736 24.9626,28.2036 7.54843,9.8315 14.4626,20.2488 20.6622,31.2047l64.467 -17.2736 -0.00826772 -0.0307087c12.8032,-3.42992 25.9642,4.16811 29.3941,16.9713 0.106299,0.399213 0.20315,0.797245 0.288189,1.19646l22.3878 83.5536 0.0307087 -0.00826772c3.42992,12.8032 -4.16811,25.9642 -16.9713,29.3941 -0.399213,0.106299 -0.797245,0.20315 -1.19646,0.288189l-63.254 16.9488c0.0885827,12.5043 -0.7063,24.9921 -2.33977,37.3796 -1.65,12.5114 -4.17992,24.8445 -7.54016,36.9154l57.802 33.3721 -11.9067 20.7189 12 -20.7851c11.4791,6.62717 15.4122,21.3059 8.78505,32.7851 -0.276378,0.478347 -0.56693,0.940158 -0.870473,1.39252l-43.0453 74.556 0.0496063 0.0283465c-6.62717,11.4791 -21.3059,15.4122 -32.7851,8.78505 -0.650788,-0.375591 -1.27559,-0.779528 -1.87677,-1.20354l-55.8792 -32.2618c-8.76851,8.93032 -18.1996,17.2949 -28.2461,25.0075 -9.77717,7.50591 -20.1921,14.4071 -31.2036,20.6244l17.2807 64.4953 0.0307087 -0.00826772c3.42992,12.8032 -4.16811,25.9642 -16.9713,29.3941 -0.399213,0.106299 -0.797245,0.20315 -1.19646,0.288189l-83.5548 22.3878 0.00826772 0.0307087c-12.8032,3.42992 -25.9642,-4.16811 -29.3941,-16.9713 -0.106299,-0.399213 -0.20315,-0.797245 -0.288189,-1.19646l-16.9488 -63.2528c-12.502,0.0885827 -24.9862,-0.707481 -37.3713,-2.34095 -12.4973,-1.64882 -24.8162,-4.1752 -36.8752,-7.52953l-33.404 57.8563 0.0496063 0.0283465c-6.62717,11.4791 -21.3059,15.4122 -32.7851,8.78505 -0.478347,-0.276378 -0.940158,-0.56693 -1.39252,-0.870473l-74.556 -43.0453 -0.0283465 0.0496063c-11.4791,-6.62717 -15.4122,-21.3059 -8.78505,-32.7851 0.375591,-0.650788 0.779528,-1.27559 1.20354,-1.87677l32.2618 -55.8804c-8.92678,-8.76615 -17.2878,-18.1949 -24.9992,-28.2378 -7.50709,-9.77835 -14.4095,-20.1969 -20.6291,-31.2118l-64.4977 17.2807 0.00826772 0.0307087c-12.8032,3.42992 -25.9642,-4.16811 -29.3941,-16.9713 -0.106299,-0.399213 -0.20315,-0.797245 -0.288189,-1.19646l-22.3878 -83.5536 -0.0307087 0.00826772c-3.42992,-12.8032 4.16811,-25.9642 16.9713,-29.3941 0.398032,-0.106299 0.797245,-0.20315 1.19646,-0.288189l63.254 -16.95c-0.0885827,-12.502 0.707481,-24.9886 2.34095,-37.3725 1.64764,-12.4973 4.17402,-24.8162 7.52835,-36.874l-57.8563 -33.4028 -0.0283465 0.0496063c-11.4791,-6.62717 -15.4122,-21.3059 -8.78505,-32.7851 0.276378,-0.478347 0.56693,-0.940158 0.870473,-1.39252l43.0453 -74.5571 -0.0496063 -0.0283465c6.62717,-11.4791 21.3059,-15.4122 32.7851,-8.78505 0.478347,0.276378 0.940158,0.56693 1.39252,0.870473l56.3965 32.5607c8.7567,-8.91615 18.1748,-17.2665 28.2071,-24.9685 9.77835,-7.50709 20.1957,-14.4071 31.2095,-20.6256l-17.2807 -64.4965 -0.0307087 0.00826772c-3.42992,-12.8032 4.16811,-25.9642 16.9713,-29.3941 0.399213,-0.106299 0.797245,-0.20315 1.19646,-0.288189l83.5548 -22.3878 -0.00826772 -0.0307087c12.8032,-3.42992 25.9642,4.16811 29.3941,16.9713 0.106299,0.399213 0.20315,0.797245 0.288189,1.19646l16.9488 63.2528zm31.1918 49.7776c-15.0437,-1.98425 -30.6355,-2.39882 -46.5626,-1.11732 -11.6492,1.37953 -22.8508,-5.96339 -25.976,-17.628l23.1827 -6.21142 -23.1567 6.1878 -16.0477 -59.8902 -38.4378 10.2992 15.7264 58.6914c3.7004,11.3398 -1.53898,23.9268 -12.6106,29.1355l-10.2165 -21.7169 10.1256 21.6567c-14.3681,6.75945 -27.8835,15.0638 -40.3996,24.6721 -12.2102,9.37442 -23.3516,19.976 -33.2929,31.5756 -7.16221,9.67324 -20.5984,12.6413 -31.2709,6.47953l12 -20.7851 -12 20.7189 -53.7307 -31.0217 -19.9228 34.5071 52.3288 30.2126c10.8709,5.29725 16.2307,18.0484 12.0437,29.687l-0.0933072 -0.0330709c-5.32087,14.7957 -9.10158,30.2445 -11.1921,46.0961 -1.98425,15.0425 -2.4,30.6319 -1.1185,46.5567 1.37953,11.6492 -5.96339,22.8508 -17.628,25.976l-6.21142 -23.1827 6.1878 23.1567 -59.8914 16.0488 10.2992 38.4366 58.7044 -15.7288c11.3362,-3.69213 23.915,1.5437 29.1225,12.6118l-21.7158 10.2177 21.6567 -10.1256c6.75945,14.3669 15.0662,27.8847 24.6756,40.402 9.37324,12.2091 19.9736,23.3504 31.5721,33.2906 9.67324,7.16221 12.6413,20.5984 6.47953,31.2709l-0.0897638 -0.0519685 -31.0394 53.7603 34.5473 19.9465 30.2126 -52.3288c5.29725,-10.8709 18.0484,-16.2307 29.687,-12.0437l-0.0330709 0.0933072c14.7969,5.32087 30.2457,9.10158 46.0985,11.1933 15.0425,1.98425 30.6319,2.4 46.5555,1.1185 11.6492,-1.37953 22.8508,5.96339 25.976,17.628l-23.1827 6.21142 23.1567 -6.1878 16.0477 59.8902 38.4378 -10.2992 -15.7276 -58.6973c-3.69685,-11.3386 1.54252,-23.9221 12.613,-29.1295l10.2154 21.7169 -10.1256 -21.6567c14.3669,-6.75827 27.8799,-15.0626 40.3937,-24.6697 12.2114,-9.3756 23.3551,-19.9807 33.2988,-31.5803 7.16221,-9.67205 20.5984,-12.6402 31.2709,-6.47835l-0.0519685 0.0897638 53.7591 31.0382 19.9701 -34.5874 -51.8327 -29.9256c-11.2205,-5.14016 -16.8165,-18.1122 -12.561,-29.9362l0.0933072 0.0330709c5.32205,-14.7921 9.1004,-30.2386 11.191,-46.0878 1.98307,-15.0449 2.39882,-30.6378 1.11732,-46.5638 -1.37953,-11.6492 5.96339,-22.8508 17.628,-25.976l6.21142 23.1827 -6.1878 -23.1567 59.8914 -16.0477 -10.2992 -38.4366 -58.6973 15.7276c-11.3374,3.69803 -23.9209,-1.54016 -29.1295,-12.6095l0.0484252 -0.022441c-6.83504,-14.5205 -15.1358,-28.0571 -24.6673,-40.4729 -9.37324,-12.2091 -19.9736,-23.3516 -31.5697,-33.2906 -9.67324,-7.16221 -12.6413,-20.5984 -6.47953,-31.2709l20.7851 12 -20.7189 -12 31.0217 -53.7307 -34.5473 -19.9465 -29.9256 51.8327c-5.14016,11.2205 -18.1122,16.8165 -29.9362,12.561l0.0330709 -0.0933072c-14.791,-5.32205 -30.2386,-9.10158 -46.0878,-11.1921z"/>
  <path class="fil1" d="M1396.01 467.874c45.7524,-11.8583 92.0859,-4.25552 130.159,17.7154l0.0283465 -0.0496063c0.714567,0.412205 1.39961,0.8563 2.05512,1.32874 37.4634,22.3441 66.5823,58.6748 78.73,104.009 12.3803,46.2071 4.84489,93.0981 -17.3504,131.558l0.0496063 0.0283465c-0.412205,0.714567 -0.8563,1.39961 -1.32874,2.05512 -22.3441,37.4634 -58.6748,66.5823 -104.009,78.73 -46.1764,12.3721 -93.0473,4.82835 -131.493,-17.3669l11.9067 -20.7189 -12 20.7851c-0.529134,-0.304725 -1.04173,-0.627166 -1.5378,-0.966142 -37.3087,-22.0512 -66.4252,-58.0182 -78.8682,-102.996 -0.305906,-0.916536 -0.553937,-1.84134 -0.744095,-2.77087 -11.8512,-45.7252 -4.24134,-92.0398 17.7319,-130.099l20.7189 11.9067 -20.7851 -12c0.304725,-0.529134 0.627166,-1.04173 0.966142,-1.5378 22.0524,-37.3075 58.0182,-66.4241 102.993,-78.867 0.918898,-0.307087 1.84606,-0.555119 2.77795,-0.745276zm118.187 38.4508l-12 20.7189c-27.4878,-15.8705 -61.0063,-21.352 -94.1658,-12.7642 -0.337796,0.106299 -0.677953,0.207874 -1.02284,0.3l-0.00826772 -0.0307087 -0.0129921 0.00354331 -5.19331 -19.4339 -0.996851 -3.72166 6.1878 23.1567c-32.9481,8.82875 -59.3044,29.9764 -75.4371,57.1548 -0.219685,0.442914 -0.454725,0.882284 -0.705119,1.31575l-0.0496063 -0.0283465 -0.0165354 0.0283465 -0.0401575 -0.0236221c-15.8469,27.489 -21.3118,61.0063 -12.7287,94.1753 0.10748,0.341339 0.210236,0.68504 0.303544,1.03465l-0.0307087 0.00826772 0.00354331 0.0129921 -19.4339 5.19331 -3.72166 0.996851 23.1567 -6.1878c8.82875,32.9504 29.9764,59.3067 57.1559,75.4394 0.442914,0.219685 0.882284,0.454725 1.31575,0.705119l-0.0283465 0.0496063 0.0283465 0.0165354 -0.0236221 0.0401575c27.7831,16.0158 61.7197,21.4299 95.2347,12.4512 32.8323,-8.79686 59.0906,-29.7496 75.2056,-56.6741 0.285827,-0.607087 0.596457,-1.20709 0.937796,-1.79764l20.7851 12 -20.7189 -12c16.037,-27.776 21.4677,-61.7103 12.4913,-95.2111 -8.79686,-32.8323 -29.7496,-59.0906 -56.6741,-75.2056 -0.607087,-0.285827 -1.20709,-0.596457 -1.79764,-0.937796l12 -20.7851z"/>
  <path class="fil1" d="M1413.7 545.196c0.956694,-0.32126 1.92047,-0.578741 2.89134,-0.774804 24.5918,-6.17481 49.4658,-2.00669 69.9497,9.81024l0.0283465 -0.0484252c0.762993,0.440552 1.49173,0.917717 2.18622,1.42559 19.4386,11.9551 34.5886,30.8764 41.2725,54.3544 0.320079,0.951969 0.577559,1.91457 0.772442,2.87953 6.17008,24.5646 1.99606,49.4221 -9.82442,69.8977 -12.0827,20.9291 -32.0882,37.2355 -57.1441,43.9489 -25.0347,6.7063 -50.4697,2.60433 -71.3481,-9.44883l11.9067 -20.7189 -12 20.7851c-0.564567,-0.325985 -1.11024,-0.673229 -1.63937,-1.03701 -20.0729,-12.1347 -35.6681,-31.7374 -42.2162,-56.1745 -6.7063,-25.0335 -2.60433,-50.4685 9.44883,-71.3469l20.7189 11.9067 -20.7851 -12c0.324803,-0.563386 0.670867,-1.10906 1.03347,-1.63465 11.8961,-19.6843 30.9756,-35.0587 54.7489,-41.824zm60.8693 29.7709l-12 20.7189c-9.94489,-5.74134 -22.0606,-7.77993 -34.1044,-4.82008 -0.309449,0.0968505 -0.620079,0.187795 -0.935434,0.272835l-0.00826772 -0.0307087 -0.0141732 0.00354331 -5.25827 -19.6795 -0.93189 -3.47599 6.1878 23.1567c-11.8665,3.17953 -21.4122,10.6937 -27.3874,20.3776 -0.198425,0.390945 -0.407481,0.780709 -0.629528,1.16457l-0.0496063 -0.0283465 -0.0165354 0.0283465 -0.0401575 -0.0236221c-5.87363,10.2165 -7.84607,22.7173 -4.53307,35.0882 3.17953,11.8689 10.6961,21.4134 20.3811,27.3886 0.389764,0.197244 0.777166,0.407481 1.16102,0.628347l-0.0283465 0.0496063 0.0283465 0.0165354 -0.0236221 0.0401575c10.2165,5.87363 22.7162,7.84725 35.0894,4.53307 12.3803,-3.31654 22.2071,-11.2724 28.0819,-21.4488 5.75434,-9.96851 7.79174,-22.1244 4.81536,-34.2166 -0.0933072,-0.303544 -0.185433,-0.609449 -0.26811,-0.920079l0.0295276 -0.00826772 -0.00354331 -0.0141732 19.7398 -5.27481 3.41575 -0.915355 -23.1567 6.1878c-3.15,-11.7579 -10.4835,-21.2114 -19.9311,-27.1642 -0.543308,-0.261024 -1.07953,-0.544489 -1.60984,-0.850394l12 -20.7839z"/>
 </g>
 <rect class="fil2" width="2048" height="2048"/>
</svg>
